<svg xmlns="http://www.w3.org/2000/svg" id="Livello_1" data-name="Livello 1" viewBox="0 0 841.89 595.28"><defs><style>.cls-1{fill:#222221;}.cls-2{fill:none;stroke:#222221;stroke-miterlimit:10;stroke-width:2px;}</style></defs><path class="cls-1" d="M293.11,294.91h-22l-9.57-26.81-3.84-10.66L256,252.56l-6.35-17.08c-7.59,20.84-9.33,26.77,2.63,59.43H229.57c-7.76-24.48,12.1-49.47,17.75-66.68l-2.86-8h27.71l-2.86,8Z"></path><path class="cls-1" d="M385.11,287.29l3.54,7.08h-28l3.53-7.08v-41.5l-20.89,44.59-28.5-54.53v37.53a27.73,27.73,0,0,0,9.21,21H300.29a27.76,27.76,0,0,0,9.2-21V227l-4.11-6.71H330.1l21.53,41.2,19.3-41.2h17.72l-3.54,7.07Z"></path><path class="cls-1" d="M461.2,294.91h-22l-9.56-26.81-3.85-10.66-1.74-4.88-6.35-17.08c-7.59,20.84-9.33,26.77,2.63,59.43H397.66c-7.76-24.48,12.1-49.47,17.75-66.68l-2.86-8h27.71l-2.85,8Z"></path><path class="cls-1" d="M493.14,270.65v14.73l3.85,9H468.38l3.85-9V229.23l-3.85-9h39.15c15.65.12,23.22,15.88,19.88,28.53-2.15,8.18-6.21,13.36-11.23,16.62,5.86,9.75,11.78,18.51,19.16,29-25.42,0-29-1.18-40.35-23l-.4-.77Zm0-6.54h1c20.59-4,19.21-35.81,8.5-35.81l-9.47,0Z"></path><path class="cls-1" d="M611.83,257.3c0,51.66-73.72,50.52-73.92,0C537.91,205.64,611.63,206.78,611.83,257.3Zm-24.21-7.74a45.18,45.18,0,0,0-29.18-22.18c-3.61,12.62-2.68,26.09,3.68,37.66a45.16,45.16,0,0,0,29.17,22.18C594.9,274.6,594,261.13,587.62,249.56Z"></path><ellipse class="cls-1" cx="573.48" cy="256.31" rx="4.67" ry="4.56" transform="translate(-48.15 346.6) rotate(-32.35)"></ellipse><path class="cls-1" d="M210.57,359.18c4.15-7.91,6.6-12.56,10.15-19.23.82-1.49,1.67-3.08,2.59-4.82h-91c5.07,10.15,7.59,15.18,12.66,25.15q0,75.8,0,151.57c-5.08,10.71-7.6,16.14-12.63,27.1,36.15-5.74,54.31-8.16,90.68-12.09-5.07-9-7.59-13.52-12.63-22.64Q210.47,431.74,210.57,359.18Zm3.27,163.35c-29,3.19-43.54,5-72.42,9.36,3.66-7.84,5.47-11.74,9.16-19.47q0-76.8.07-153.56c-3.69-7.2-5.5-10.82-9.19-18.09,6.71,0,11.74,0,16.78-.07s10,0,16.75-.07h5.6c13.41-.07,20.12-.07,33.53-.14-3.69,7-5.53,10.46-9.22,17.52q-.1,74-.22,148.06C208.34,512.7,210.18,516,213.84,522.53Z"></path><path class="cls-1" d="M356.11,454.73C331,485.56,321.3,492.8,296.18,495q.1-68.38.25-136.8c5.08-9.3,7.63-13.91,12.74-23.1h-91c.92,1.74,1.77,3.33,2.55,4.82,3.51,6.67,6,11.25,10.08,19q-.17,83.55-.29,167.14,67.69-7,135.78-9.05c0-29.95,0-44.92.07-74.86C362.25,447.17,360.19,449.69,356.11,454.73Zm4.5,57.4q-62.31,2-124.42,8.06.17-81.27.28-162.6c-3.65-6.81-5.5-10.26-9.15-17.14l72.66-.18c-3.69,6.71-5.54,10-9.22,16.78q-.12,71.81-.25,143.59c32.53-2.06,43.17-9.94,70.14-43Q360.65,484.88,360.61,512.13Z"></path><path class="cls-1" d="M513.28,443.06c-4.08,4.86-6.14,7.27-10.22,12.13C478,484.81,468.33,491,443.21,491.52c0-20.19,0-30.3,0-50.49a41.18,41.18,0,0,1,5.25,8.16c.71,1.42,2.17,4.33,6.11,4.37s5.35-2.81,6.06-4.19a51.52,51.52,0,0,1,8-11.1,55.53,55.53,0,0,1,12.6-6.92c1.56-.64,4.82-1.92,4.79-5.4s-3.3-4.82-4.87-5.46a57.84,57.84,0,0,1-12.31-7,48.2,48.2,0,0,1-7.66-11c-.71-1.42-2.16-4.33-6.07-4.37s-5.35,2.84-6.1,4.23a44.49,44.49,0,0,1-5.85,8.72v-7.38h0c0-17.49,0-26.25,0-43.74,18.55.25,26.14,2.3,54.1,28.35,4.47,4.11,6.71,6.21,11.14,10.36-2.52-25.44-3.79-38.14-6.35-63.51H364.84c5,9.08,7.59,13.59,12.66,22.63q0,79.46-.11,159,68-1.61,136,1.8C513.35,488.36,513.31,473.25,513.28,443.06ZM383.07,511.57q.06-77.49.11-155c-3.69-6.53-5.5-9.83-9.19-16.36q61.47,0,122.86,0c1.81,17.77,2.7,26.68,4.47,44.52-32.25-30-39.77-29.87-63.86-29.9,0,17.49,0,26.25,0,43.74h0V422a87,87,0,0,0,7.59-4.83c17-18.66,3.2-18.66,19.73-.07,20.68,14.94,20.86,2.7-.21,17.56-17,18.56-3.2,18.52-19.73,0a79.36,79.36,0,0,0-7.38-4.68v3.23h0c0,25.36,0,38.07,0,63.4,32.57.28,43.21-6.39,70.07-38.21,0,21.92.07,32.89.07,54.81Q445.47,510.34,383.07,511.57Z"></path><path class="cls-1" d="M639.62,529.23c28,3.34,42,5.29,70,9.72q-31.23-58.49-65.28-115.37,29.49-43.63,57.37-88.45H616.91c2,3.23,3.05,4.86,5.11,8.09,14.48,23,16.68,38,7.1,55.38-16.15-26-24.2-38.64-40.34-63.47H505.05l12,9.05c18.34,13.83,35.8,41.72,52.65,69.43,3.8,6.24,7.7,12.7,11.57,18.91q-30.07,43.47-61,86.39c33.6,1.7,67.38,4.47,100.8,8.2-2-3.45-3.05-5.15-5.07-8.59-1.74-2.91-3.41-5.64-5-8.3-14.19-23.28-21.64-35-13.62-51.66C614.29,486.06,622.77,500.14,639.62,529.23Zm-28.46-8.48c-32.21-3.26-48.35-4.54-80.64-6.42q29-40.44,57.34-81.46c-19.34-31.64-38.36-68.15-67.2-92.63,26,.07,39,.07,64.92.14,17.14,26.4,25.73,39.84,42.86,67.55.43.25.68.39,1.1.68,16.07-23.21,14.05-41.55-2.66-68.12l64.57.24c-21.53,34.17-32.28,50.53-53.75,82.42q32.14,53.64,62,108.64c-22.71-3.37-34.1-4.9-56.87-7.59-18.27-31.51-27.43-46.73-45.73-76.39C579.06,473.92,592,488.72,611.16,520.75Z"></path><path class="cls-2" d="M155.11,521.54c1.57-3.3,2.35-4.95,3.92-8.23l.12-156.57c-1.57-3.06-2.36-4.59-3.93-7.67,18.05-.18,27.07-.26,45.13-.41-1.58,3-2.37,4.52-3.94,7.54q-.1,76.35-.22,152.7L200.1,516C182.09,518,173.09,519.11,155.11,521.54Zm197-16.72c0-10,0-14.94,0-24.91-15.83,17-28.28,24.3-49.31,27.24C322.5,506,332.36,505.51,352.09,504.82ZM282,508.5q.13-76.61.28-153.21c1.57-2.89,2.36-4.33,3.94-7.21-18.06.09-27.08.15-45.14.27l3.92,7.28q-.14,77.92-.28,155.85C259.6,510.15,267.06,509.55,282,508.5Zm217.17-3.33c0-10,0-15,0-25-15.79,16-28.23,22.28-49.28,23.63C469.57,504.13,479.43,504.39,499.15,505.17ZM429,503.64c0-25.17,0-37.76,0-62.94h0c0-16.85,0-25.27,0-42.12,0-3,0-4.53,0-7.56,0-17.31,0-26,0-43.28-16.48,0-24.72,0-41.21,0l3.93,7q0,74.55-.08,149.11C406.56,503.62,414,503.58,429,503.64Zm28.93-73.86.57-.63.71-.5c1.55-1.1,3-2.06,4.36-2.92q-1.92-1.23-4.1-2.8l-.74-.54-.6-.67q-1.74-2-3.1-3.67-1.47,1.8-3.34,3.85l-.57.63-.71.5c-1.49,1.06-2.94,2-4.37,2.93,1.35.87,2.72,1.79,4.11,2.79l.74.54.6.66c1.16,1.3,2.19,2.53,3.1,3.67Q456.05,431.84,457.92,429.78Zm31.17-82c-14.59,0-21.88-.05-36.47-.06,13,1.08,22.67,4.74,38.18,17.19C490.12,358.1,489.77,354.67,489.09,347.82ZM684.93,521.29c-18.65-33.18-37.42-66.24-57.17-98.78l2.66-3.94c-3.27-2.05-4.91-3.07-8.18-5.09-16.58-26.73-24.88-39.72-41.47-65.26-16-.1-24-.14-40-.21,14.54,16,28.05,37.82,41.22,59.58,4.54,7.5,8.83,14.64,13.17,21.62q27,43.23,52.48,87.43C662.58,518.36,670,519.29,684.93,521.29Zm-88.82-9.91c-12.84-21-21.65-37.16-12.07-58-15.28,21.94-22.92,32.73-38.22,54.19C566,508.83,576,509.6,596.11,511.38ZM676.19,349c-14-.13-21-.2-35.05-.31,7.67,15.35,10.56,30.15,5,46.37C658.17,377,664.17,367.76,676.19,349Z"></path><path class="cls-1" d="M391.61,480.63V485c14.95-.2,22.42-.24,37.37-.18v-4.37C414,480.4,406.56,480.44,391.61,480.63Z"></path><path class="cls-1" d="M352.1,492.67c0-1.8,0-2.71,0-4.51l-8.57.28c-1.89,1.72-3.76,3.29-5.63,4.74C343.58,493,346.42,492.86,352.1,492.67Z"></path><path class="cls-1" d="M282.07,461.31v-4c-14.91.74-22.37,1.16-37.28,2.1,0,1.62,0,2.44,0,4.06C259.69,462.51,267.15,462.08,282.07,461.31Z"></path><path class="cls-1" d="M282.08,454.36c0-1.55,0-2.32,0-3.86-14.92.69-22.38,1.09-37.29,2v3.94C259.7,455.49,267.16,455.08,282.08,454.36Z"></path><path class="cls-1" d="M429,493.73c-15-.06-22.43,0-37.38.19v4.61c14.95-.21,22.42-.25,37.38-.19Z"></path><path class="cls-1" d="M429,491.58v-4.49c-15,0-22.42,0-37.37.18v4.5C406.56,491.56,414,491.52,429,491.58Z"></path><path class="cls-1" d="M352.11,485.87v-4.4l-1.53,0c-1.52,1.59-3,3.12-4.5,4.54Z"></path><path class="cls-1" d="M352.09,499.48c0-1.85,0-2.78,0-4.64-7,.23-10.42.36-17.36.64a63.17,63.17,0,0,1-8.61,5C336.52,500,341.71,499.83,352.09,499.48Z"></path><path class="cls-1" d="M282.13,426.54v-3.37c-14.92.54-22.38.84-37.29,1.51v3.43C259.76,427.41,267.21,427.09,282.13,426.54Z"></path><path class="cls-1" d="M282.14,419.58c0-1.29,0-1.94,0-3.24-14.92.49-22.38.77-37.28,1.4V421C259.77,420.38,267.23,420.1,282.14,419.58Z"></path><path class="cls-1" d="M391.64,420.81v3.27c14.92-.11,22.38-.14,37.31-.1V420.7C414,420.67,406.56,420.69,391.64,420.81Z"></path><path class="cls-1" d="M282.12,433.5V430c-14.91.58-22.37.9-37.28,1.63v3.55C259.74,434.43,267.2,434.09,282.12,433.5Z"></path><path class="cls-1" d="M429,430.74v-3.4c-14.93,0-22.39,0-37.31.11v3.4C406.56,430.73,414,430.7,429,430.74Z"></path><path class="cls-1" d="M282.15,412.63c0-1.25,0-1.87,0-3.12-14.92.45-22.37.71-37.28,1.28,0,1.27,0,1.9,0,3.17C259.78,413.36,267.24,413.1,282.15,412.63Z"></path><path class="cls-1" d="M282.09,447.4c0-1.49,0-2.24,0-3.74-14.92.66-22.38,1-37.28,1.87,0,1.52,0,2.28,0,3.8C259.72,448.47,267.17,448.08,282.09,447.4Z"></path><path class="cls-1" d="M282.1,440.45v-3.62c-14.92.62-22.37,1-37.28,1.75,0,1.47,0,2.21,0,3.68C259.73,441.45,267.19,441.09,282.1,440.45Z"></path><path class="cls-1" d="M282,482.18c0-1.75,0-2.62,0-4.36-14.92.86-22.38,1.35-37.29,2.44v4.44C259.65,483.57,267.11,483.07,282,482.18Z"></path><path class="cls-1" d="M282,475.23c0-1.7,0-2.55,0-4.24-14.92.82-22.38,1.28-37.28,2.33,0,1.72,0,2.58,0,4.31C259.66,476.55,267.12,476.07,282,475.23Z"></path><path class="cls-1" d="M282,489.14c0-1.8,0-2.7,0-4.49-14.93.9-22.38,1.41-37.29,2.56,0,1.83,0,2.74,0,4.57C259.64,490.6,267.1,490.07,282,489.14Z"></path><path class="cls-1" d="M282.06,468.27v-4.11c-14.92.78-22.37,1.22-37.28,2.21v4.18C259.68,469.53,267.14,469.08,282.06,468.27Z"></path><path class="cls-1" d="M352.09,501.53c-12.57.43-18.85.69-31.41,1.31a83.67,83.67,0,0,1-17.88,4.31c19.7-1.17,29.56-1.64,49.29-2.33Z"></path><path class="cls-1" d="M282,503.05c0-1.9,0-2.85,0-4.74-14.92,1-22.38,1.54-37.28,2.8,0,1.92,0,2.89,0,4.82C259.61,504.64,267.07,504.06,282,503.05Z"></path><path class="cls-1" d="M282,496.09v-4.61c-14.92.94-22.38,1.48-37.28,2.68,0,1.88,0,2.82,0,4.69C259.63,497.62,267.08,497.07,282,496.09Z"></path><path class="cls-1" d="M391.62,467.33v4.13c14.94-.18,22.42-.21,37.36-.16v-4.12C414,467.13,406.56,467.16,391.62,467.33Z"></path><path class="cls-1" d="M497.59,481.72c-1.51,1.5-3,2.93-4.48,4.25l6,.2v-4.4Z"></path><path class="cls-1" d="M490.57,488.18c-1.89,1.59-3.76,3-5.63,4.34,5.68.17,8.52.27,14.2.48,0-1.81,0-2.72,0-4.53Z"></path><path class="cls-1" d="M391.63,454v3.88c14.94-.16,22.41-.19,37.35-.14V453.9C414,453.86,406.57,453.88,391.63,454Z"></path><path class="cls-1" d="M391.62,474v4.25C406.56,478,414,478,429,478.06v-4.24C414,473.77,406.56,473.8,391.62,474Z"></path><path class="cls-1" d="M391.62,460.69v4c14.94-.17,22.42-.2,37.36-.15v-4C414,460.49,406.57,460.52,391.62,460.69Z"></path><path class="cls-1" d="M499.14,495.17c-6.94-.26-10.41-.37-17.36-.57a58.09,58.09,0,0,1-8.6,4.39c10.39.26,15.58.43,26,.83C499.15,498,499.14,497,499.14,495.17Z"></path><path class="cls-1" d="M429,347.74c-16.48,0-24.72,0-41.21,0,.42.75.63,1.13,1.06,1.88,16.06,0,24.09,0,40.16,0C429,348.86,429,348.49,429,347.74Z"></path><path class="cls-1" d="M429,500.37c-15-.06-22.43,0-37.39.2v3.28c15-.23,22.43-.27,37.39-.21Z"></path><path class="cls-1" d="M451.68,421.9l-.57.63-.71.5-1.51,1,12.36.11-1.79-1.25-.74-.54-.6-.67-.74-.85-4.74,0Z"></path><path class="cls-1" d="M489.09,347.82c-14.59,0-21.88-.05-36.47-.06a61.7,61.7,0,0,1,11.22,1.89l25.44.07Z"></path><path class="cls-1" d="M580.77,348.22c-16-.1-24-.14-40-.21.57.63,1.14,1.28,1.71,1.93,15.82.08,23.73.13,39.54.24Z"></path><path class="cls-1" d="M583.13,455.58c.3-.73.57-1.47.91-2.21l-1.52,2.18Z"></path><path class="cls-1" d="M391.63,440.75v3.64c14.94-.15,22.41-.17,37.35-.13V440.7h0v-.08C414,440.58,406.56,440.61,391.63,440.75Z"></path><path class="cls-1" d="M448.26,427.44c.62.42,1.25.86,1.88,1.31l.74.54.6.66.79.92,4.64,0c.33-.37.65-.74,1-1.13l.57-.63.71-.5c.55-.39,1.07-.74,1.6-1.1Z"></path><path class="cls-1" d="M642.12,350.68c13.1.13,19.65.19,32.76.34l1.31-2c-14-.13-21-.2-35.05-.31C641.48,349.33,641.8,350,642.12,350.68Z"></path><path class="cls-1" d="M585.6,413.52c15.75.59,23.62.91,39.36,1.64l-2.72-1.68-1-1.7c-15-.66-22.52-.95-37.54-1.48C584.3,411.37,585,412.46,585.6,413.52Z"></path><path class="cls-1" d="M286.2,348.08c-18.06.09-27.08.15-45.14.27.43.78.64,1.18,1.06,2,17.2-.13,25.81-.19,43-.29C285.56,349.24,285.77,348.85,286.2,348.08Z"></path><path class="cls-1" d="M545.82,507.56c20.13,1.27,30.19,2,50.29,3.82-.74-1.22-1.47-2.42-2.18-3.61-18.32-1.57-27.49-2.25-45.83-3.41Z"></path><path class="cls-1" d="M647.66,516.64c14.92,1.72,22.38,2.65,37.27,4.65l-2.15-3.9c-14.91-1.95-22.37-2.85-37.31-4.52C646.35,514.37,646.78,515.13,647.66,516.64Z"></path><path class="cls-1" d="M200.35,348.66c-18.06.15-27.08.23-45.13.41l1.06,2.07c17.2-.2,25.8-.29,43-.45C199.71,349.87,199.92,349.47,200.35,348.66Z"></path><path class="cls-1" d="M197.13,510.6c-.37-.68-.56-1-.94-1.7,0-1.26,0-1.89,0-3.15-14.88,1.6-22.31,2.46-37.17,4.33v3.23c-.37.79-.56,1.18-.94,2C173.69,513.26,181.5,512.32,197.13,510.6Z"></path><path class="cls-1" d="M198.27,512.66c-16.54,1.84-24.81,2.84-41.32,5-.74,1.54-1.1,2.31-1.84,3.86,18-2.43,27-3.55,45-5.57Z"></path><path class="cls-1" d="M282,505.14c-14.92,1-22.38,1.61-37.29,2.92v3.42c14.9-1.33,22.36-1.93,37.28-3Z"></path><path class="cls-1" d="M245,355.63v1.73c14.91-.16,22.36-.24,37.27-.37,0-.68,0-1,0-1.7.09-.17.13-.26.22-.42-15.09.12-22.64.19-37.73.34Z"></path><path class="cls-1" d="M282.23,370.9v-2.37c-14.91.2-22.37.32-37.27.57v2.41C259.86,371.24,267.32,371.12,282.23,370.9Z"></path><path class="cls-1" d="M282.24,363.94V361.7c-14.91.16-22.36.25-37.27.45,0,.92,0,1.37,0,2.29C259.87,364.22,267.33,364.12,282.24,363.94Z"></path><path class="cls-1" d="M282.22,377.85v-2.49c-14.91.24-22.37.38-37.28.69v2.54C259.85,378.26,267.3,378.11,282.22,377.85Z"></path><path class="cls-1" d="M282.18,398.72v-2.87c-14.91.37-22.37.58-37.27,1,0,1.17,0,1.75,0,2.92C259.81,399.32,267.26,399.1,282.18,398.72Z"></path><path class="cls-1" d="M282.2,384.81c0-1.05,0-1.57,0-2.62-14.92.29-22.37.45-37.28.81v2.66C259.83,385.28,267.29,385.11,282.2,384.81Z"></path><path class="cls-1" d="M282.19,391.76V389c-14.92.33-22.37.51-37.28.93,0,1.11,0,1.67,0,2.79C259.82,392.3,267.28,392.11,282.19,391.76Z"></path><path class="cls-1" d="M475.45,354.4c1.15.63,2.34,1.33,3.55,2.08l11,0c-.08-.83-.13-1.25-.21-2.08Z"></path><path class="cls-1" d="M429,383.42v-2.55c-14.92,0-22.38,0-37.31.06v2.54C406.58,383.41,414.05,383.4,429,383.42Z"></path><path class="cls-1" d="M391.68,354.74v1.66c14.91,0,22.37,0,37.29,0v-2.06c-15,0-22.51,0-37.52,0Z"></path><path class="cls-1" d="M391.67,367.63v2.31c14.92-.05,22.38-.06,37.3,0v-2.31C414.05,367.58,406.59,367.59,391.67,367.63Z"></path><path class="cls-1" d="M391.67,374.28v2.43c14.92-.06,22.38-.07,37.3,0v-2.43C414.05,374.22,406.59,374.23,391.67,374.28Z"></path><path class="cls-1" d="M391.67,361v2.19c14.92,0,22.38,0,37.3,0V361C414.05,360.94,406.59,361,391.67,361Z"></path><path class="cls-1" d="M282.17,405.67v-3c-14.91.41-22.37.64-37.28,1.16v3C259.79,406.34,267.25,406.1,282.17,405.67Z"></path><path class="cls-1" d="M485.81,361.12c.95.69,1.93,1.43,2.92,2.21h1.91c-.09-.88-.13-1.32-.22-2.2Z"></path><path class="cls-1" d="M391.65,407.51v3c14.92-.1,22.38-.12,37.29-.09v-3C414,407.4,406.57,407.42,391.65,407.51Z"></path><path class="cls-1" d="M641,505.26l3.08,5.27c14.94,1.64,22.4,2.53,37.31,4.45-1.21-2.19-1.82-3.28-3-5.46C663.46,507.68,656,506.83,641,505.26Z"></path><path class="cls-1" d="M196.2,503.44c0-1.94,0-2.9,0-4.83-14.88,1.53-22.32,2.36-37.17,4.15v4.94C173.89,505.87,181.32,505,196.2,503.44Z"></path><path class="cls-1" d="M196.29,438c0-1.46,0-2.19,0-3.65-14.89.93-22.34,1.43-37.21,2.52,0,1.5,0,2.24,0,3.74C174,439.47,181.4,439,196.29,438Z"></path><path class="cls-1" d="M196.21,496.16c0-1.88,0-2.81,0-4.69-14.88,1.46-22.32,2.26-37.17,4,0,1.93,0,2.89,0,4.82C173.9,498.49,181.33,497.67,196.21,496.16Z"></path><path class="cls-1" d="M623.31,475.29c1.1,1.83,1.65,2.75,2.75,4.6,15,1.26,22.51,1.95,37.51,3.45-1.09-1.91-1.64-2.86-2.73-4.75C645.84,477.16,638.33,476.49,623.31,475.29Z"></path><path class="cls-1" d="M632.18,490.18c1.16,2,1.74,3,2.91,4.93,15,1.45,22.46,2.24,37.41,3.94-1.15-2.05-1.73-3.06-2.88-5.1C654.65,492.32,647.16,491.57,632.18,490.18Z"></path><path class="cls-1" d="M627.74,482.71l2.83,4.77c15,1.35,22.49,2.09,37.47,3.68l-2.81-4.92C650.25,484.71,642.75,484,627.74,482.71Z"></path><path class="cls-1" d="M196.28,445.25v-3.78c-14.89,1-22.33,1.54-37.21,2.7v3.88C174,446.85,181.39,446.29,196.28,445.25Z"></path><path class="cls-1" d="M196.22,488.89v-4.57c-14.88,1.4-22.32,2.16-37.18,3.79v4.68C173.9,491.11,181.34,490.33,196.22,488.89Z"></path><path class="cls-1" d="M618.87,467.9l2.67,4.45c15,1.17,22.54,1.81,37.55,3.21-1.05-1.84-1.58-2.75-2.64-4.58C641.43,469.64,633.91,469,618.87,467.9Z"></path><path class="cls-1" d="M196.26,459.8c0-1.62,0-2.43,0-4-14.89,1.13-22.33,1.74-37.2,3.06V463C173.94,461.6,181.37,461,196.26,459.8Z"></path><path class="cls-1" d="M196.27,452.53v-3.91c-14.89,1.06-22.33,1.63-37.2,2.87,0,1.61,0,2.41,0,4C173.94,454.22,181.38,453.63,196.27,452.53Z"></path><path class="cls-1" d="M196.23,481.62c0-1.78,0-2.66,0-4.44-14.89,1.34-22.32,2.06-37.18,3.61v4.54C173.91,483.73,181.35,483,196.23,481.62Z"></path><path class="cls-1" d="M196.25,467.07c0-1.67,0-2.5,0-4.17-14.89,1.2-22.33,1.84-37.19,3.24,0,1.71,0,2.57,0,4.28C173.93,469,181.37,468.31,196.25,467.07Z"></path><path class="cls-1" d="M196.24,474.34c0-1.72,0-2.58,0-4.3-14.89,1.27-22.33,1.95-37.19,3.42v4.42C173.92,476.35,181.36,475.65,196.24,474.34Z"></path><path class="cls-1" d="M636.61,497.7c1.2,2,1.8,3.05,3,5.1,15,1.54,22.44,2.38,37.37,4.18l-3-5.27C659.06,500,651.58,499.17,636.61,497.7Z"></path><path class="cls-1" d="M648.63,384.43q-.18,1.36-.42,2.73l3.11.11c.7-1.08,1.06-1.62,1.77-2.69Z"></path><path class="cls-1" d="M575.1,396.25l1.8,2.94c14.88.43,22.32.67,37.19,1.21l-1.89-3C597.36,396.89,589.94,396.66,575.1,396.25Z"></path><path class="cls-1" d="M649,377.29c0,.87,0,1.74,0,2.61l7,.2,1.68-2.57Z"></path><path class="cls-1" d="M647.23,391.54c-.25.94-.54,1.89-.85,2.84h.23l1.85-2.81Z"></path><path class="cls-1" d="M648.39,370.12q.2,1.25.33,2.49l12,.29,1.6-2.46C656.76,370.3,654,370.24,648.39,370.12Z"></path><path class="cls-1" d="M644.33,355.75c.3.75.59,1.49.86,2.23,10,.14,15,.22,25,.38l1.44-2.23C660.69,356,655.24,355.89,644.33,355.75Z"></path><path class="cls-1" d="M614.43,460.57l2.59,4.28c15.05,1.09,22.57,1.68,37.6,3l-2.57-4.41C637,462.18,629.49,461.61,614.43,460.57Z"></path><path class="cls-1" d="M646.82,362.93c.22.79.42,1.58.61,2.36l18,.36L667,363.3Z"></path><path class="cls-1" d="M605.55,446l2.43,4c15.08.93,22.62,1.44,37.69,2.55l-2.41-4.08C628.18,447.38,620.64,446.9,605.55,446Z"></path><path class="cls-1" d="M610,453.27l2.51,4.12c15.07,1,22.6,1.56,37.65,2.77-1-1.7-1.5-2.55-2.49-4.25C632.6,454.76,625.07,454.23,610,453.27Z"></path><path class="cls-1" d="M601.11,438.79l2.35,3.82c15.1.85,22.65,1.32,37.73,2.34L638.86,441C623.77,440.05,616.22,439.6,601.11,438.79Z"></path><path class="cls-1" d="M579.39,403.26l1.86,3.08c15,.49,22.45.77,37.41,1.38l-2-3.16C601.77,404,594.31,403.73,579.39,403.26Z"></path><path class="cls-1" d="M587.93,417.37q1,1.69,2,3.36c15.13.63,22.69,1,37.8,1.76l2.2-3.25C613.16,418.41,604.75,418,587.93,417.37Z"></path><path class="cls-1" d="M596.67,431.61l2.27,3.67c15.11.77,22.67,1.2,37.77,2.14l-2.25-3.77C619.35,432.76,611.79,432.35,596.67,431.61Z"></path><path class="cls-1" d="M592.26,424.47l2.16,3.52c15.13.7,22.69,1.09,37.81,1.94l-2.17-3.61C614.94,425.51,607.38,425.14,592.26,424.47Z"></path><path class="cls-1" d="M557.37,491.32l-3.13,4.41c13.67.86,20.51,1.34,34.17,2.42q-1.32-2.46-2.48-4.87C574.51,492.42,568.8,492,557.37,491.32Z"></path><path class="cls-1" d="M391.65,414.16v3.15c14.91-.1,22.38-.12,37.3-.09,0-1.26,0-1.89,0-3.15C414,414,406.57,414.06,391.65,414.16Z"></path><path class="cls-1" d="M391.63,451.16C406.57,451,414,451,429,451v-3.76c-14.94,0-22.41,0-37.35.13Z"></path><path class="cls-1" d="M391.65,400.87v2.91c14.92-.09,22.38-.11,37.29-.08v-2.91C414,400.76,406.57,400.78,391.65,400.87Z"></path><path class="cls-1" d="M391.64,434.1v3.52c14.92-.13,22.38-.16,37.31-.12V434C414,434,406.56,434,391.64,434.1Z"></path><path class="cls-1" d="M391.66,394.22V397c14.91-.08,22.37-.1,37.29-.07,0-1.12,0-1.68,0-2.79C414,394.13,406.58,394.14,391.66,394.22Z"></path><path class="cls-1" d="M607.7,390.25c-14.77-.43-22.16-.63-36.94-1l1.75,2.8c14.8.37,22.2.58,37,1Z"></path><path class="cls-1" d="M391.66,387.57v2.67c14.92-.07,22.39-.08,37.31-.06v-2.67C414.05,387.49,406.58,387.5,391.66,387.57Z"></path><path class="cls-1" d="M580.51,458.43l-2.7,3.86,3.15.19a40.39,40.39,0,0,1,1.09-4Z"></path><path class="cls-1" d="M499.15,501.87c-12.56-.49-18.85-.68-31.42-1a80.91,80.91,0,0,1-17.89,2.94c19.73.29,29.59.55,49.31,1.33Z"></path><path class="cls-1" d="M552.74,497.85c-1.29,1.8-1.93,2.71-3.22,4.52,17.24,1.08,25.86,1.72,43.08,3.17-1-1.71-2-3.39-2.92-5.05C574.91,499.3,567.52,498.77,552.74,497.85Z"></path><path class="cls-1" d="M566.32,382.32,568,385c14.76.32,22.14.49,36.89.89l-1.72-2.72C588.46,382.78,581.08,382.62,566.32,382.32Z"></path><path class="cls-1" d="M562,484.78l-3,4.3c10.35.64,15.52,1,25.86,1.75-.69-1.56-1.33-3.12-1.89-4.67C574.55,485.57,570.37,485.29,562,484.78Z"></path><path class="cls-1" d="M566.63,478.22l-3,4.19c7.37.45,11.05.69,18.41,1.2-.46-1.49-.87-3-1.18-4.48C575.19,478.75,572.34,478.56,566.63,478.22Z"></path><path class="cls-1" d="M575.88,465c-1.11,1.6-1.67,2.39-2.78,4l6.95.42a39.09,39.09,0,0,1,.37-4.13Z"></path><path class="cls-1" d="M571.26,471.64l-2.88,4.09c4.83.29,7.24.44,12.07.75a41.17,41.17,0,0,1-.42-4.3Z"></path><path class="cls-1" d="M196.31,423.44c0-1.36,0-2,0-3.39-14.9.79-22.34,1.22-37.22,2.15v3.48C174,424.71,181.42,424.26,196.31,423.44Z"></path><path class="cls-1" d="M196.34,401.62v-3c-14.9.6-22.35.92-37.24,1.61v3.08C174,402.58,181.45,402.24,196.34,401.62Z"></path><path class="cls-1" d="M196.37,379.8c0-1,0-1.56,0-2.6-14.9.39-22.35.6-37.25,1.06v2.68C174,380.45,181.47,380.22,196.37,379.8Z"></path><path class="cls-1" d="M196.36,387.07c0-1.09,0-1.64,0-2.73-14.9.46-22.35.71-37.25,1.25v2.8C174,387.82,181.46,387.56,196.36,387.07Z"></path><path class="cls-1" d="M196.35,394.35c0-1.15,0-1.72,0-2.87-14.9.53-22.35.81-37.24,1.43v2.94C174,395.2,181.45,394.9,196.35,394.35Z"></path><path class="cls-1" d="M196.33,408.89v-3.13c-14.9.66-22.35,1-37.23,1.79v3.21C174,410,181.44,409.58,196.33,408.89Z"></path><path class="cls-1" d="M196.3,430.71c0-1.41,0-2.11,0-3.52-14.9.86-22.34,1.33-37.22,2.33v3.61C174,432.09,181.41,431.6,196.3,430.71Z"></path><path class="cls-1" d="M196.32,416.16c0-1.3,0-2,0-3.25-14.9.72-22.34,1.12-37.23,2v3.34C174,417.33,181.43,416.92,196.32,416.16Z"></path><path class="cls-1" d="M546.6,354.77l1.71,2.12c15.33.13,23,.2,38.31.36-.56-.86-.84-1.29-1.39-2.16C569.78,355,562.05,354.88,546.6,354.77Z"></path><path class="cls-1" d="M196.38,372.53c0-1,0-1.49,0-2.48-14.91.33-22.36.51-37.26.89v2.54C174,373.07,181.48,372.88,196.38,372.53Z"></path><path class="cls-1" d="M557,368.49l1.67,2.4c14.84.21,22.27.33,37.11.6-.63-1-.94-1.46-1.56-2.43C579.33,368.8,571.89,368.69,557,368.49Z"></path><path class="cls-1" d="M561.76,375.39l1.68,2.53c14.77.26,22.15.41,36.91.74-.65-1-1-1.54-1.64-2.57C583.93,375.78,576.54,375.64,561.76,375.39Z"></path><path class="cls-1" d="M552,361.62c.57.74,1.13,1.5,1.69,2.26,15,.16,22.52.26,37.54.47l-1.48-2.29C574.62,361.86,567.07,361.77,552,361.62Z"></path><path class="cls-1" d="M159.14,358.56c14.91-.24,22.36-.36,37.26-.57,0-.72,0-1.07,0-1.79.09-.17.13-.26.23-.43-15.09.19-22.64.3-37.72.53.09.17.13.26.23.44C159.14,357.47,159.14,357.83,159.14,358.56Z"></path><path class="cls-1" d="M196.39,365.26v-2.35c-14.91.26-22.36.4-37.26.7V366C174,365.69,181.49,365.54,196.39,365.26Z"></path><path class="cls-1" d="M489.28,349.72l-.19-1.9c-14.59,0-21.88-.05-36.47-.06a61.7,61.7,0,0,1,11.22,1.89Z"></path><path class="cls-1" d="M155.11,521.54l4.74-.64c1.15-2.4,1.72-3.6,2.87-6l.12-156.16-3.92-7.64c16.15-.18,24.22-.27,40.37-.42.42-.81.63-1.22,1.06-2-18.06.15-27.08.23-45.13.41,1.57,3.08,2.36,4.61,3.93,7.67L159,513.31C157.46,516.59,156.68,518.24,155.11,521.54Z"></path><path class="cls-1" d="M248.4,511.15q.14-76.8.28-153.59c-1.57-2.9-2.35-4.36-3.92-7.27,16.15-.12,24.23-.18,40.38-.27.42-.78.63-1.17,1.06-1.94-18.06.09-27.08.15-45.14.27l3.92,7.28q-.14,77.92-.28,155.85Z"></path><path class="cls-1" d="M490.8,365l-.1-1a84,84,0,0,0-14.78-9.24A106.85,106.85,0,0,1,490.8,365Z"></path><path class="cls-1" d="M646.18,395c2.51-3.79,3.77-5.69,6.28-9.51,1.24-11.86-1.82-23.17-7.61-34.81,12,.11,18,.18,30,.31l1.31-2c-14-.13-21-.2-35.05-.31C648.81,364,651.7,378.81,646.18,395Z"></path><path class="cls-1" d="M352.11,485.54v-5.63c-15.83,17-28.28,24.3-49.31,27.24,6.56-.39,9.85-.57,16.41-.91C331.72,502.69,341.33,496.4,352.11,485.54Z"></path><path class="cls-1" d="M598.88,431.36c-4.33-7-8.62-14.17-13.16-21.69C572.55,387.86,559,366,544.49,350c15,.08,22.53.12,37.55.23l-1.27-2c-16-.1-24-.14-40-.21,14.54,16,28.05,37.82,41.22,59.58,4.54,7.5,8.83,14.64,13.17,21.62q27,43.23,52.48,87.43l2.44.28Q625.26,473.72,598.88,431.36Z"></path><path class="cls-1" d="M550.84,507.89c11.8-16.56,17.7-24.88,29.48-41.72a42.9,42.9,0,0,1,3.72-12.8c-15.28,21.94-22.92,32.73-38.22,54.19Z"></path><path class="cls-1" d="M499.13,485.85c0-2.26,0-3.39,0-5.64-15.79,16-28.23,22.28-49.28,23.63,6.57.09,9.85.16,16.43.31C478.78,501.56,488.38,496,499.13,485.85Z"></path><path class="cls-1" d="M395.32,503.79l.06-147.17-3.93-7c15,0,22.51,0,37.52,0,0-.76,0-1.13,0-1.88-16.48,0-24.72,0-41.21,0l3.93,7q0,74.55-.08,149.11Z"></path><path class="cls-1" d="M450.88,429.29l.6.66c1.16,1.3,2.19,2.53,3.1,3.67.33-.4.69-.82,1.05-1.24l-.44-.51-.6-.67-.74-.53c-1.4-1-2.76-1.93-4.11-2.8,1.43-.9,2.88-1.87,4.37-2.93l.71-.5.57-.62c.83-.91,1.58-1.77,2.29-2.61-1-1.11-1.87-2.17-2.66-3.16q-1.47,1.8-3.34,3.85l-.57.63-.71.5c-1.49,1.06-2.94,2-4.37,2.93,1.35.87,2.72,1.79,4.11,2.79Z"></path><path class="cls-1" d="M413,147.1l-9.41-9.41,1.87-.24a5.4,5.4,0,0,0,2.09-1,13.35,13.35,0,0,0,2.2-1.66l1.46-1.46-3,1.26-4.74-4.74,1.25-2.91-1.43,1.43a13.5,13.5,0,0,0-1.68,2.19,5.7,5.7,0,0,0-.95,2.1l-.23,1.87-9.41-9.41,1.86-.23a6,6,0,0,0,2.12-1,14.3,14.3,0,0,0,2.17-1.67l3.85-3.85a3.27,3.27,0,0,0,.56-1c0-.07.05-.14.08-.23s-.05-.15-.08-.22a3.4,3.4,0,0,0-.56-1l-3.85-3.84a14.23,14.23,0,0,0-2.19-1.68,5.37,5.37,0,0,0-2.1-1l-1.86-.23,9.41-9.41.23,1.87a5.32,5.32,0,0,0,1,2.08,12.4,12.4,0,0,0,1.67,2.2l1.46,1.46-1.27-3,4.74-4.74,2.92,1.26-1.44-1.44A14.23,14.23,0,0,0,407.57,98a5.94,5.94,0,0,0-2.1-1l-1.87-.23L413,87.36l.24,1.87a5.78,5.78,0,0,0,.95,2.11,14.29,14.29,0,0,0,1.68,2.18l3.84,3.84a3,3,0,0,0,1,.57L421,98l.22-.07a3,3,0,0,0,1-.57L426,93.52a13.74,13.74,0,0,0,1.69-2.2,5.32,5.32,0,0,0,.94-2.09l.24-1.87,9.41,9.41-1.87.23a5.76,5.76,0,0,0-2.09,1,12.9,12.9,0,0,0-2.2,1.67l-1.46,1.46,2.95-1.27,4.74,4.74-1.25,2.92,1.43-1.44a13.06,13.06,0,0,0,1.68-2.19,5.61,5.61,0,0,0,.95-2.09l.23-1.87,9.41,9.41-1.86.23a5.64,5.64,0,0,0-2.12,1,13.11,13.11,0,0,0-2.17,1.67L440.81,116a3.4,3.4,0,0,0-.56,1c0,.07-.05.15-.08.24l.08.21a3.27,3.27,0,0,0,.56,1l3.85,3.85a14.23,14.23,0,0,0,2.19,1.68,5.37,5.37,0,0,0,2.1,1l1.86.23-9.41,9.41-.23-1.87a5.4,5.4,0,0,0-1-2.09,13.2,13.2,0,0,0-1.67-2.2L437.08,127l1.27,3-4.74,4.74-2.92-1.26,1.44,1.44a14.23,14.23,0,0,0,2.19,1.68,5.65,5.65,0,0,0,2.1.94l1.86.24-9.4,9.41-.24-1.87a5.71,5.71,0,0,0-.95-2.11,14.48,14.48,0,0,0-1.67-2.18l-3.85-3.84a3,3,0,0,0-1-.57l-.24-.07-.21.07a3,3,0,0,0-1,.57l-3.84,3.84a13.58,13.58,0,0,0-1.69,2.19,5.33,5.33,0,0,0-.94,2.1Zm7.92-12.54.19.05a4.69,4.69,0,0,1,.72.21,5,5,0,0,1,1.63,1l3.85,3.85a16.22,16.22,0,0,1,1.92,2.48q.43.7.72,1.29l4.64-4.64a13.25,13.25,0,0,1-1.27-.71,16.14,16.14,0,0,1-2.5-1.93l-8.25-8.24,10.61,4.57,3-3-4.55-10.6,8.23,8.22a14.61,14.61,0,0,1,1.91,2.51,11.38,11.38,0,0,1,.72,1.27l4.64-4.64a11.64,11.64,0,0,1-1.28-.73,15.19,15.19,0,0,1-2.49-1.92h0l-3.84-3.84a4.9,4.9,0,0,1-1-1.61,3.58,3.58,0,0,1-.21-.7l-.05-.2,0-.2a6.8,6.8,0,0,1,.21-.72,4.87,4.87,0,0,1,1-1.63l3.84-3.84a15.19,15.19,0,0,1,2.49-1.92,11.72,11.72,0,0,1,1.29-.72l-4.65-4.65a13.07,13.07,0,0,1-.7,1.28,16,16,0,0,1-1.94,2.5l-8.24,8.24L436.18,105l-3-3-10.59,4.54,8.22-8.22a14.59,14.59,0,0,1,2.51-1.92,12.28,12.28,0,0,1,1.26-.72L430,91.05a11.46,11.46,0,0,1-.72,1.28,16.38,16.38,0,0,1-1.92,2.49l-3.85,3.84a4.78,4.78,0,0,1-1.6,1,4.55,4.55,0,0,1-.71.22l-.19,0-.2,0a5.17,5.17,0,0,1-2.35-1.19l-3.85-3.84a16.38,16.38,0,0,1-1.92-2.49,12.5,12.5,0,0,1-.72-1.29l-4.64,4.65a13.25,13.25,0,0,1,1.27.71,15.1,15.1,0,0,1,2.5,1.93l8.25,8.24L408.7,102l-3,3,4.55,10.6L402,107.35a15.15,15.15,0,0,1-1.91-2.52,12.28,12.28,0,0,1-.72-1.26l-4.64,4.64a11.46,11.46,0,0,1,1.28.72,15.73,15.73,0,0,1,2.49,1.93l3.84,3.84a4.8,4.8,0,0,1,1,1.61,3.58,3.58,0,0,1,.21.7l.05.2,0,.2a6.8,6.8,0,0,1-.21.72,5,5,0,0,1-1,1.63l-3.84,3.84a15.76,15.76,0,0,1-2.49,1.92,13.64,13.64,0,0,1-1.29.72l4.65,4.64a13,13,0,0,1,.7-1.27,16,16,0,0,1,1.94-2.5l8.24-8.24-4.58,10.6,3,3,10.59-4.54-8.22,8.22a14.12,14.12,0,0,1-2.51,1.91,10.84,10.84,0,0,1-1.26.73l4.64,4.64a10.64,10.64,0,0,1,.72-1.28,15.89,15.89,0,0,1,1.92-2.49l3.85-3.85a4.68,4.68,0,0,1,1.6-1,4.55,4.55,0,0,1,.71-.22Zm0-11.46-4.15-1.73-1.73-4.14,1.73-4.14,4.14-1.73,4.14,1.73,1.73,4.14-1.73,4.14ZM418.21,120,421,121.1l2.73-1.14,1.14-2.73-1.14-2.73-2.74-1.15-2.73,1.15-1.14,2.73Z"></path><path class="cls-1" d="M420.94,78.6a38.63,38.63,0,1,1-38.63,38.63A38.68,38.68,0,0,1,420.94,78.6m0-1.84a40.47,40.47,0,1,0,40.48,40.47,40.47,40.47,0,0,0-40.48-40.47Z"></path><path class="cls-1" d="M385.83,89.56,384.24,92l-3.7-.86-1.48-.34-.67-.16h0L376,90.15c1.8,2.36,2.34,3,6.87,4l-1.64,2.55c-3.31-.9-4.68-4.94-6.21-6.81l-1.1-.26,2-3.11.69.9Z"></path><path class="cls-1" d="M393.78,80.33l1,.36-2.72,2.56-.31-1-3.78-4,2,6.26-7.75-2.71,3.42,3.65a3.75,3.75,0,0,0,2.82,1.21l-2.32,2.16a3.66,3.66,0,0,0-1-2.88l-4.24-4.53-1-.28,2.41-2.25,5.86,2.05-1.88-5.78L388,73.47l.31,1Z"></path><path class="cls-1" d="M403.23,76.21l-2.57,1.42-2.85-2.52-1.13-1-.52-.46h0l-1.85-1.59c.46,2.93.64,3.74,4.14,6.79l-2.65,1.46c-2.48-2.37-1.77-6.57-2.22-9l-.85-.75L396,68.83l.18,1.12Z"></path><path class="cls-1" d="M406.3,71.83l.55,1.88.83,1L404,75.8l.15-1.3-2.11-7.2-.83-1,5-1.47h0a2.93,2.93,0,0,1,3.62,2.91,3.56,3.56,0,0,1-.82,2.55c1.12,1,2.21,1.93,3.55,3-3.26,1-3.77.94-6-1.42l-.09-.09Zm-.25-.84.13,0c2.49-1.28,1.12-5.31-.26-4.91l-1.21.36Z"></path><path class="cls-1" d="M422.37,67.57h0c.47,6.88-9.36,7.41-9.85.68S421.88,60.84,422.37,67.57Zm-3.3-.81A6.05,6.05,0,0,0,415,64.07a6.62,6.62,0,0,0,.84,5,6,6,0,0,0,4.09,2.68A6.64,6.64,0,0,0,419.07,66.76Z"></path><path class="cls-1" d="M430.77,72.86l.29,1-3.67-.7.64-.84,1.5-7.86-.29-1,1.69.32.28.06h0l1.69.32-.64.84Z"></path><path class="cls-1" d="M439.62,73.31l-1,3-6.05-2.08,2.92-8.47-.14-1,3.53,1.22-.75.74-2.64,7.66C437.05,74.84,437.7,74.63,439.62,73.31Z"></path><path class="cls-1" d="M447,77.27,445.48,80,439.9,76.9l4.35-7.82L444.3,68l5.52,3.08-1,2.34c-.63-2.29-1-2.48-2-3.09l-1.41,2.54a1.46,1.46,0,0,1,1.44.9,1.5,1.5,0,0,0,1.29.9l-.06,0c-1,.83-2.28.67-2.76-.38a1.72,1.72,0,0,0-.42-.56l-2.07,3.72C444.21,78.33,444.89,78.23,447,77.27Z"></path><path class="cls-1" d="M451.86,80c-1.68.53-1.7,1.58-2,3.47l-3.15-2.7L452,79.08c.37-2.09,1-4.54.73-6.14l2.54,2.17-.72,4.22,0,.06c1.47-.45,2-1.24,2.31-2.89l2.52,2.16-5,1.58-1.12,6.21-2.22-1.92Z"></path><path class="cls-1" d="M470.17,93.69a3.69,3.69,0,0,0-3,.39l-6.08,3.65-1.23-2,4.25-8.15-4.32,2.59a3.69,3.69,0,0,0-1.77,2.5l-1.63-2.72a3.69,3.69,0,0,0,3-.39l5.31-3.19.49-.93,1.67,2.78-4,7.64,3.36-2,.63-.37A3.72,3.72,0,0,0,468.54,91Z"></path><path class="cls-1" d="M469.59,107.58c-6.6,2-9.31-7.47-2.86-9.45S476,105.59,469.59,107.58Zm.05-3.4a6.08,6.08,0,0,0,1.71-4.59,6.61,6.61,0,0,0-4.67,1.93,6,6,0,0,0-1.71,4.59A6.62,6.62,0,0,0,469.64,104.18Z"></path><path class="cls-1" d="M465.3,115.11v0l-.39-5.19,1.24.43,7.47-.57,1.16-.6,0,.52c.11,1.4.23,3.08.34,4.49.23,3.06-2.81,2.87-4.09,1.36C470.33,118.58,465.56,118.23,465.3,115.11Zm4.88-2.3-3.95.3c0,.1.09,1.17.1,1.26C466.44,115.82,470,115.72,470.18,112.81Zm.85-.06.1,1.33c.72,1.07,3.1.32,3-1.56Z"></path><path class="cls-1" d="M466,122.21l-1,.39.29-3.72.9.54,8,.63,1-.4-.14,1.72,0,.29-.13,1.72-.91-.55Z"></path><path class="cls-1" d="M466.57,131.05l-3.06-.69,1.4-6.24,8.73,2,1-.25-.82,3.65-.82-.67L465.12,127C464.76,128.67,465.05,129.29,466.57,131.05Z"></path><path class="cls-1" d="M463.44,138.83l-2.89-1.21,2.48-5.9,8.25,3.47,1.06-.07L469.89,141l-2.44-.78c2.2-.87,2.36-1.22,2.84-2.37l-2.67-1.12a1.49,1.49,0,0,1-.74,1.54,1.47,1.47,0,0,0-.75,1.37l-.06-.05c-.94-.94-.92-2.19.07-2.79a1.57,1.57,0,0,0,.51-.48l-3.92-1.64C462.08,136.17,462.26,136.83,463.44,138.83Z"></path><path class="cls-1" d="M456.46,149,454,147.12l3.91-5.06,7.08,5.48,1,.2-3.87,5L460,151.36c2.35-.27,2.59-.58,3.35-1.56L461.05,148a1.5,1.5,0,0,1-1.11,1.3,1.46,1.46,0,0,0-1.08,1.13.21.21,0,0,1,0-.06c-.67-1.15-.32-2.36.78-2.68a1.61,1.61,0,0,0,.62-.33l-3.37-2.6C455.83,146.11,455.83,146.8,456.46,149Z"></path><path class="cls-1" d="M450.36,154.78l-2.11-2.32,4.72-4.31,6,6.62,1,.38-2.76,2.52-.28-1-5.46-6C450.24,151.79,450.12,152.47,450.36,154.78Z"></path><path class="cls-1" d="M445.18,155.64l-.92-.52,3.09-2.1.14,1,4.5,6.63.92.51-1.43,1-.24.16-1.42,1-.14-1.05Z"></path><path class="cls-1" d="M438.53,158.12l4.72-2.3,1.37,2.82a6.4,6.4,0,0,0-5,.09c1.57,2.13,9.08.32,6.59,6.67l-4.05,2-1.24-2.54a4.46,4.46,0,0,0,4.39-.14C444.31,162.68,437.07,165.05,438.53,158.12Z"></path><path class="cls-1" d="M433.48,160.9l-.74-.76L436.3,159l-.16,1,2.45,7.63.74.75-1.64.53-.28.09h0l-1.64.52.16-1Z"></path><path class="cls-1" d="M429,164.2l-.29-1.95-.69-1.11,3.78-.56-.33,1.26,1.1,7.42.68,1.11-5.15.76h0a2.93,2.93,0,0,1-3.18-3.38,3.61,3.61,0,0,1,1.15-2.42c-1-1.17-1.91-2.21-3.09-3.45,3.35-.5,3.86-.41,5.78,2.24l.06.1Zm.12.86-.12,0c-2.65.93-1.84,5.11-.43,4.9l1.25-.18Z"></path><path class="cls-1" d="M415,161.34l2.89.43-1.33,8.85.33,1-3.49-.53C406.65,170.1,408.82,160.41,415,161.34Zm-1.2,8.88,1.2-8-.33-.05C411.35,161.71,411.34,168.49,413.77,170.22Z"></path><path class="cls-1" d="M398.2,161.46h0c2.52-6.42,11.62-2.69,9.19,3.6S395.76,167.75,398.2,161.46Zm2.63,2.15a6.05,6.05,0,0,0,2.55,4.17,6.65,6.65,0,0,0,1.38-4.86,6.05,6.05,0,0,0-2.55-4.18A6.69,6.69,0,0,0,400.83,163.61Z"></path><path class="cls-1" d="M389.33,157c2-1.73,3.9-.89,5.43.15l1.1-1.63.25-1.28,3.17,2.14-1.1.71L394,163.27l-.24,1.28-4.31-2.92h0A2.94,2.94,0,0,1,389.33,157Zm1.21,4.13,1,.71,2.69-4C391.66,156.56,389.34,160.28,390.54,161.1Z"></path><path class="cls-1" d="M381.53,147.61h0c5-4.75,11.67,2.51,6.79,7.16S376.65,152.27,381.53,147.61Zm1.47,3a6.07,6.07,0,0,0,.53,4.87,6.63,6.63,0,0,0,3.32-3.81,6,6,0,0,0-.53-4.87A6.63,6.63,0,0,0,383,150.66Z"></path><path class="cls-1" d="M375.41,139.8c2.54-.73,3.91.85,4.86,2.43l1.69-1,.76-1.06,2,3.28-1.29.17L377,147.47l-.77,1.05-2.67-4.47v0A2.93,2.93,0,0,1,375.41,139.8Zm-.65,4.25c.05.07.6,1,.65,1.08l4.13-2.46C377.69,140.41,374,142.8,374.76,144.05Z"></path><path class="cls-1" d="M377.63,128.38l1,2.76-2.93,2.42-1.16,1L374,135h0l-1.85,1.57c3,0,3.78-.05,7.33-3.05l1,2.85c-2.72,2.09-6.76.74-9.18.82l-.87.73-1.27-3.48h1.13Z"></path><path class="cls-1" d="M376.59,122.12l.81,5.19-3.1.49a6.36,6.36,0,0,0,1.38-4.83c-2.49.87-3,8.58-8.3,4.34l-.7-4.45,2.79-.44a4.47,4.47,0,0,0-1.16,4.23C370.53,126.31,370.38,118.69,376.59,122.12Z"></path><path class="cls-1" d="M375.24,114.26l1.22-.47-.13,3.82-1.19-.56-1.25,0-6.49-.22c-.95.43,1.34,2.61,1.51,2.8l-2.54-.31.26-7.83,2.56-.14c-.19.17-2.61,2.19-1.7,2.69Z"></path><path class="cls-1" d="M374.28,99.88c6.68,1.75,4,11.23-2.5,9.55S367.75,98.19,374.28,99.88Zm-1.82,2.86a6,6,0,0,0-3.85,3,6.63,6.63,0,0,0,5,.8,6,6,0,0,0,3.85-3A6.62,6.62,0,0,0,372.46,102.74Z"></path><path class="cls-1" d="M420.94,59.56a57.67,57.67,0,1,1-57.67,57.67,57.74,57.74,0,0,1,57.67-57.67m0-3.24a60.91,60.91,0,1,0,60.91,60.91,60.91,60.91,0,0,0-60.91-60.91Z"></path></svg>