<svg xmlns="http://www.w3.org/2000/svg" id="Livello_1" data-name="Livello 1" viewBox="0 0 4254.7 2000"><path d="M2136.7,299.7c-164.2,0-297.4,133.1-297.4,297.4s133.2,297.5,297.4,297.5,297.5-133.2,297.5-297.5S2301,299.7,2136.7,299.7Zm149.2,375.6-123.8-52.9,49.5,116,16.7,59.6-47.6,47.5-31-31,8.5-8.6a42.2,42.2,0,0,0,11.5-40.4l-24-89.4-8.9.3-9-.3L2104.5,763l-.6,2.2a43.1,43.1,0,0,0,11.4,40.7l8.6,8.6-31.1,31L2044,796.8l14.6-50.5,52.9-123.9-116,49.5-59.6,16.7-47.5-47.5,31-31,8.6,8.5a42.8,42.8,0,0,0,40.6,11.4l89.3-23.9-.3-8.5.2-9.4L1971,564.9l-2.3-.6a43.2,43.2,0,0,0-40.7,11.4l-8.6,8.5-31-31,48.7-48.8,50.5,14.6,123.9,52.9-49.5-116-16.7-59.6,47.5-47.5,31.1,31-8.6,8.6a42.6,42.6,0,0,0-11.4,40.6l23.9,89.3,9.1-.4,8.8.3,23.3-87a7.9,7.9,0,0,0,.6-2.2,42.8,42.8,0,0,0-11.3-40.6l-8.6-8.6,31.1-31,48.7,48.7L2214.9,448l-52.8,123.8,116-49.5,59.5-16.7,47.6,47.6-31.1,31-8.6-8.5a42.7,42.7,0,0,0-40.6-11.4l-89.2,23.9.3,8.9-.3,9,86.7,23.2,2.5.7a43.2,43.2,0,0,0,40.6-11.4l8.6-8.5,31.1,31-48.8,48.8Zm32.3,32.7-70.5,70.6-19.6-46L2211,671.7l69,20Zm-172.3,85.6-9.1,9.1-9.2-9.1a25.3,25.3,0,0,1-6.7-24.4l15.9-59.2,16,59.9A24.9,24.9,0,0,1,2145.9,793.6Zm-103.7-53.2-16.3,38.2L1955.3,708l46-19.6,60.9-17Zm-111-143.3,9.1-9.1a25.6,25.6,0,0,1,24.3-6.7l1.7.4,57.6,15.5-59.9,16a24.9,24.9,0,0,1-5.7.6,25.7,25.7,0,0,1-18-7.5Zm24.1-110.8,70.6-70.6,19.6,46,17,60.9-69-20Zm172.3-85.6,9.2-9.1,9.1,9.1c6.6,6.5,8.9,15.3,6.7,24.4l-15.8,59.2-16.1-59.9A25.2,25.2,0,0,1,2127.6,400.7Zm103.8,53.2,16.3-38.2,70.5,70.5-45.9,19.6-60.9,17.1Zm111,143.2-9.2,9.2a25.8,25.8,0,0,1-24.3,6.8l-1.7-.5-57.6-15.5,59.9-16a26.2,26.2,0,0,1,5.7-.6,24.9,24.9,0,0,1,18,7.5Zm23.4.1,41.8-41.8a287.2,287.2,0,0,1,3.5,41.7,275.2,275.2,0,0,1-3.6,41.8Zm40.9-47.1-222.9-223C2297.3,346.9,2387,436.5,2406.7,550.1ZM2178.5,326.3l-41.7,41.8L2095,326.3a250.8,250.8,0,0,1,83.5,0Zm-88.7.8L1866.7,550.2C1886.4,436.5,1976.1,346.8,2089.8,327.1ZM1865.9,555.4l41.8,41.8-41.8,41.7a250.8,250.8,0,0,1,0-83.5Zm.8,88.7,223,223C1976.1,847.4,1886.4,757.7,1866.7,644.1ZM2095,867.9l41.8-41.7,41.7,41.7a243.9,243.9,0,0,1-83.5,0Zm88.8-.8,222.9-222.9C2387,757.7,2297.4,847.3,2183.8,867.1Z"></path><path d="M1603.3,1320.1l38,35.3c-32.7,37.7-80.9,57.7-139.6,57.7-39.4,0-76.3-10.1-106.5-28.9a175.7,175.7,0,0,1-24.1-18,46.4,46.4,0,0,0-4-3.6,172,172,0,0,1-45.5-74.6,11.3,11.3,0,0,1-.4-1.5,185.5,185.5,0,0,1-7.4-52.5c0-73.8,39.9-133.1,102.3-161.2a35.9,35.9,0,0,1,5.3-2.4c24.1-10.1,51.2-15.5,80.7-15.5,25.1,0,48.4,3.7,69.6,10.9l.4.2a162.9,162.9,0,0,1,65.6,42.2l.5.4,1.3,1.4,1.1,1.2.7.9-43.3,40.2-1.5,1.4-1-1a147.5,147.5,0,0,0-17.4-15.5c-20.9-15.3-45-23.1-71.8-23.1-70.6,0-119.9,49.3-119.9,119.9,0,35.3,12.9,66.9,36.1,88.5,1.4,1.3,2.6,2.5,3.5,3.2l.5.4.2.2a114.8,114.8,0,0,0,44.5,23.1,133.4,133.4,0,0,0,35.1,4.6,119,119,0,0,0,51.1-11h.1a123.6,123.6,0,0,0,39-29.1l1.6,1.5Z"></path><path d="M489.8,1238.3l-12.7-4.2L489,1228c28.6-15,44.4-41.2,44.4-73.6,0-36.8-20.6-63.1-58.3-76.4-19.4-7.3-43.3-10.9-71.3-10.9h-169v346H414c88.5,0,137.2-32.6,137.2-91.8C551.2,1280.5,529.5,1251,489.8,1238.3Zm-184-120.1h87.7c27.5,0,44.4,6.1,54.4,15a39.5,39.5,0,0,1,12.8,23.7,42.6,42.6,0,0,1,.7,8.7c0,12-4,29.7-24.9,39.8-10,4.9-23.8,8.1-43,8.1H305.8Zm147.3,235.9c-11.5,5.3-26.5,7.9-45.3,7.9h-102v-99.5h102c28.4,0,46,6.3,56.7,15.3a41.4,41.4,0,0,1,13.5,23.3,43.8,43.8,0,0,1,1.2,11.4C479.2,1332.2,470.5,1346.3,453.1,1354.1Z"></path><polygon points="856.1 1356.3 856.1 1412.6 605.5 1412.6 605.5 1066.4 677 1066.4 677 1356.3 856.1 1356.3"></polygon><path d="M1146.5,1070.4l-1.5-3.3h-74.5l-154.2,346h72.4l30.2-73.1,1.3-3.4h173.3l1.4,3.4,1.3,3.1,29.1,70h74.3Zm-101.1,206.9,56.7-136.8,5.1-12.4,5.1,12.4,1.9,4.7,54.7,132.1,3.2,7.6H1042.2Z"></path><polygon points="2043.7 1413.1 1961.4 1413.1 1852.9 1279.8 1848.8 1274.8 1844.8 1269.9 1840.5 1274.5 1792.5 1324.5 1790.9 1326.1 1790.9 1413.1 1719.9 1413.1 1719.9 1067.1 1790.9 1067.1 1790.9 1242.3 1800.5 1232.2 1802.9 1229.7 1809.8 1222.3 1957.1 1067.1 2033.8 1067.1 2030.7 1070.4 1894.5 1216.9 1891.3 1220.3 1894.2 1224.1 2043.7 1413.1"></polygon><polygon points="2488.9 1413.1 2422.5 1413.1 2422 1223.1 2422 1184.2 2411.7 1201.6 2308.1 1375.4 2277.2 1375.4 2175.9 1208.8 2174.2 1206 2163.9 1189 2163.9 1413.1 2097.5 1413.1 2097.5 1067.1 2157.1 1067.1 2159.1 1070.4 2289.2 1286.3 2294.1 1294.3 2298.7 1286.6 2298.8 1286.3 2302.7 1279.8 2428.8 1067.1 2488 1067.1 2488 1070.4 2488.9 1413.1"></polygon><path d="M2805,1066.3l-1.5-.5c-21.2-7.2-44.4-10.9-69.2-10.9-29.6,0-57,5.4-81.3,15.5-65.8,27-108.5,87.7-108.5,163.6a187.3,187.3,0,0,0,8.7,57.3,169.5,169.5,0,0,0,72,91.9l.7.5c30.2,18.8,67.2,29.4,108.4,29.4,110.1,0,189.9-75.3,189.9-179.1C2924.2,1154.1,2877,1091,2805,1066.3Zm-16.8,275.6h-.6a121.7,121.7,0,0,1-53.3,11.8,123.3,123.3,0,0,1-33.2-4.4c-50.3-13.5-84.1-57.9-84.1-115.4,0-69.5,49.4-119.9,117.3-119.9,27.6,0,51.8,8.3,71.1,22.5l.6.4c20.6,15.6,35.4,37.8,41.9,64.7a5.3,5.3,0,0,0,.3,1.2,120.7,120.7,0,0,1,5.3,36.1C2853.5,1287.3,2827.7,1325.7,2788.2,1341.9Z"></path><path d="M3292,1067v191.3c0,100.3-56.9,157.7-156.1,157.7-36.4,0-67.1-7.6-91.3-22.4-27.6-16.7-46.8-42.1-56.8-75.7-.2-.1-.2-.4-.2-.7-5.2-17.5-7.9-37.1-7.9-58.9V1067h71.5v188.3c0,55.7,19.5,88.5,58.2,98.2,8.2,2.3,17.2,3.2,27,3.2,15.9,0,29.7-2.6,41.1-8q44.1-20.7,44.1-93.4V1067Z"></path><polygon points="3647.8 1067 3647.8 1123.2 3533.4 1123.2 3533.4 1413 3461.8 1413 3461.8 1123.2 3347.6 1123.2 3347.6 1067 3647.8 1067"></polygon><polygon points="4019.8 1067 4019.8 1413 3948.3 1413 3948.3 1266.6 3774.9 1266.6 3774.9 1413 3703.3 1413 3703.3 1067 3774.9 1067 3774.9 1207.8 3948.3 1207.8 3948.3 1067 4019.8 1067"></polygon><path d="M1795.4,1587.3h6.1c2.1.1,4.1.4,6.2.6s4,.7,6,1.2a46.1,46.1,0,0,1,5.6,2,37.7,37.7,0,0,1,8.7,5.4,40.9,40.9,0,0,1,6.8,7,49.9,49.9,0,0,1,4.9,8.4,61.2,61.2,0,0,1,3.2,9.4,66.7,66.7,0,0,1,1.9,10.1c.3,3.4.5,6.9.5,10.3s0,4.5-.1,6.9-.4,4.8-.7,7.2-.7,4.7-1.2,7a41.1,41.1,0,0,1-1.9,6.5,53.4,53.4,0,0,1-4.3,8.2,51.4,51.4,0,0,1-5.9,7.2,36.8,36.8,0,0,1-7.3,5.7,29.3,29.3,0,0,1-8.3,3.7c-3.3.9-6.6,1.6-10,2.2a58.4,58.4,0,0,1-10.2.8h-64V1587.3Zm-35.2,87.5h30.6l4.4-.4,4.3-.8a16.7,16.7,0,0,0,3.8-1.5,15.1,15.1,0,0,0,4.4-3.5,22.7,22.7,0,0,0,3-4.6,31.1,31.1,0,0,0,1.8-5.4,50.3,50.3,0,0,0,1-5.6c.1-1.9.3-3.7.3-5.5s.1-3.4.1-5-.1-3.8-.2-6.1a57.1,57.1,0,0,0-.8-7.1,31.1,31.1,0,0,0-1.9-6.8,17.2,17.2,0,0,0-3.3-5.8,18.8,18.8,0,0,0-4.4-3.6,21.4,21.4,0,0,0-5.2-2.2,33.5,33.5,0,0,0-5.5-1.1,48.9,48.9,0,0,0-5.4-.3h-27Z"></path><path d="M1872.7,1587.3h79.1a40.5,40.5,0,0,1,7,.6,25.4,25.4,0,0,1,6.6,2.1,26.6,26.6,0,0,1,8.4,5.5,33,33,0,0,1,6,7.9,36.6,36.6,0,0,1,3.6,9.4,44.7,44.7,0,0,1-.1,21,36.1,36.1,0,0,1-4,9.7,32,32,0,0,1-6.6,8,29.7,29.7,0,0,1-9.1,5.4l-2,.7,25,39.6h-34.3l-24.1-38.4h-26.7v38.4h-28.8Zm67.1,51.8a16.1,16.1,0,0,0,6.3-1.2,15.1,15.1,0,0,0,4.9-3.3,14.8,14.8,0,0,0,3.2-5.1,16.1,16.1,0,0,0,1.2-6.3,16.9,16.9,0,0,0-1.2-6.4,15.8,15.8,0,0,0-3.2-5.1,15.1,15.1,0,0,0-4.9-3.3,16.1,16.1,0,0,0-6.3-1.2h-38.3v31.9Z"></path><path d="M2063.2,1617.9l24.8-30.6h37.3l-23.8,29.3-23.7,29.3-.4.5v50.8h-28.5v-51l-.4-.4-23.7-29.3-23.6-29.2h37.2Z"></path><path d="M2257.5,1615.7a25.7,25.7,0,0,0-6.7-5.2,28.9,28.9,0,0,0-8-3.1,34.7,34.7,0,0,0-8.5-1,35.6,35.6,0,0,0-8,.8,31.8,31.8,0,0,0-7.7,2.6,31.1,31.1,0,0,0-8.5,5.5,30.5,30.5,0,0,0-6.1,7.4,32.2,32.2,0,0,0-3.7,9,43.5,43.5,0,0,0,0,20.3,33.9,33.9,0,0,0,3.6,9,37,37,0,0,0,6.1,7.6,34.5,34.5,0,0,0,8.6,5.6,43.6,43.6,0,0,0,7.7,2.6,42.6,42.6,0,0,0,8,.8,37.2,37.2,0,0,0,8.8-1.1,29.4,29.4,0,0,0,8-3.3,26,26,0,0,0,6.7-5.7,22.9,22.9,0,0,0,4.4-8l.8-2.2h-26.8v-22.7H2291v30.7h-.1v.2c-.2.6-.5,1.1-.7,1.7l-.6,1.8-1.2,2.5c-.4.8-.6,1.3-.8,1.6a42.7,42.7,0,0,1-7.4,9.9,51,51,0,0,1-9.8,7.5,63.8,63.8,0,0,1-11.2,5.3,76.1,76.1,0,0,1-12,3.2q-3.4.6-6.9.9l-7,.3a87.6,87.6,0,0,1-17.3-1.6,72.1,72.1,0,0,1-15.3-4.9,59.3,59.3,0,0,1-12.6-8.2,47.7,47.7,0,0,1-9.6-11.4,55.5,55.5,0,0,1-6.1-14.5,75.6,75.6,0,0,1,0-35.4,54.1,54.1,0,0,1,6.1-14.5,44.1,44.1,0,0,1,9.6-11.4,55.7,55.7,0,0,1,12.6-8.2,66.8,66.8,0,0,1,15.3-4.9,87.5,87.5,0,0,1,17.3-1.7,77.9,77.9,0,0,1,23.3,3.6,61.4,61.4,0,0,1,10.9,4.6,49.1,49.1,0,0,1,9.6,6.5,45,45,0,0,1,7.8,8.5,41.8,41.8,0,0,1,5.2,10.6l-28,5.8A22,22,0,0,0,2257.5,1615.7Z"></path><path d="M2346.9,1587.3v109.9h-28.5V1587.3Z"></path><path d="M2405.4,1587.3l58.5,66.1v-66.1h25v109.9h-26.7l-57.7-65.4v65.4h-25.1V1587.3Z"></path></svg>